<?xml version="1.0" encoding="UTF-8" standalone="no"?>
<svg
   height="24px"
   viewBox="0 -960 960 960"
   width="24px"
   fill="#41cc6b"
   version="1.1"
   id="svg1"
   xmlns:xlink="http://www.w3.org/1999/xlink"
   xmlns="http://www.w3.org/2000/svg">
  <defs
     id="defs1">
    <linearGradient
       id="linearGradient15">
      <stop
         style="stop-color:#000000;stop-opacity:0;"
         offset="0"
         id="stop15" />
      <stop
         style="stop-color:#000000;stop-opacity:1;"
         offset="1"
         id="stop14" />
    </linearGradient>
    <linearGradient
       id="linearGradient10">
      <stop
         style="stop-color:#000000;stop-opacity:1;"
         offset="0"
         id="stop11" />
      <stop
         style="stop-color:#000000;stop-opacity:0;"
         offset="1"
         id="stop12" />
    </linearGradient>
    <radialGradient
       xlink:href="#linearGradient10"
       id="radialGradient12"
       cx="478.24365"
       cy="-539.47504"
       fx="478.24365"
       fy="-539.47504"
       r="337.10938"
       gradientTransform="matrix(1.1896957,0,0,1.1834724,-91.053965,87.389408)"
       gradientUnits="userSpaceOnUse" />
    <radialGradient
       xlink:href="#linearGradient15"
       id="radialGradient12-5"
       cx="478.24365"
       cy="-539.47504"
       fx="478.24365"
       fy="-539.47504"
       r="337.10938"
       gradientTransform="matrix(0.79034731,0,0,0.87235527,100.69842,-83.058321)"
       gradientUnits="userSpaceOnUse" />
  </defs>
  <path
     d="m 480,-958.35937 c -106.12196,0 -199.52026,37.11541 -280.15625,111.48437 -80.636,74.36894 -120.937489,174.26845 -120.9375,299.60938 -1.2e-5,83.56061 33.25681,174.31626 99.6875,272.5 C 245.02444,-176.58191 345.4674,-70.181156 480,44.296875 614.5326,-70.181156 714.97558,-176.58192 781.40625,-274.76562 c 66.43069,-98.18374 99.6875,-188.9394 99.6875,-272.5 0,-125.34093 -40.30149,-225.24044 -120.9375,-299.60938 C 679.52025,-921.24396 586.12196,-958.35937 480,-958.35937 Z m -86.5625,286.40625 h 208.98437 c 5.84818,0 10.54688,20.90229 10.54688,46.875 v 145.9375 c 0,25.9727 -4.6987,46.95312 -10.54688,46.95312 H 393.4375 c -5.84818,0 -10.54688,-20.98042 -10.54688,-46.95312 v -145.9375 c 0,-25.97271 4.6987,-46.875 10.54688,-46.875 z"
     style="display:inline;fill:url(#radialGradient12);stroke-width:1.25342"
     id="path15" />
  <path
     d="m 480.34922,-640.05097 c -44.63207,-10e-6 -80.54688,35.99292 -80.54688,80.625 2e-5,44.63207 35.91481,80.54687 80.54688,80.54687 44.63208,0 80.46875,-35.9148 80.46875,-80.54687 0,-44.63207 -35.83667,-80.625 -80.46875,-80.625 z"
     style="display:inline;fill:url(#radialGradient12-5);stroke-width:1.29068"
     id="path12" />
  <path
     d="M 536.5,-503.5 Q 560,-527 560,-560 560,-593 536.5,-616.5 513,-640 480,-640 q -33,0 -56.5,23.5 -23.5,23.5 -23.5,56.5 0,33 23.5,56.5 23.5,23.5 56.5,23.5 33,0 56.5,-23.5 z M 480,-80 Q 319,-217 239.5,-334.5 160,-452 160,-552 q 0,-150 96.5,-239 96.5,-89 223.5,-89 127,0 223.5,89 96.5,89 96.5,239 0,100 -79.5,217.5 Q 641,-217 480,-80 Z"
     id="path1"
     style="display:inline;fill:#149c3d;fill-opacity:1" />
</svg>
